<svg xmlns="http://www.w3.org/2000/svg" viewBox="13.248 19.009 32 32">
  <defs>
    <linearGradient id="b" x1="255.421" x2="216.902" y1="69.863" y2="-58.285" gradientUnits="userSpaceOnUse" gradientTransform="matrix(1, 0, 0, 1, 0.810233, 22.095898)">
      <stop stop-color="#2AF598"/>
      <stop offset="1" stop-color="#009EFD"/>
    </linearGradient>
  </defs>
  <ellipse style="paint-order: stroke; fill: rgb(255, 255, 255); stroke: rgb(255, 255, 255);" cx="57.891" cy="63.652" rx="44.643" ry="44.643" transform="matrix(0.35839900374412537, 0, 0, 0.35839900374412537, 8.49993419647216, 12.196189880371094)"/>
  <path fill="url(#b)" d="M 86.042 90.287 L 86.042 53.296 L 75.595 50.181 L 73.419 51.166 L 73.419 26.059 L 63.163 22.097 L 40.785 32.427 L 40.785 66.717 L 30.696 69.81 L 30.696 90.287 L 23.811 90.287 L 23.811 91.959 L 32.465 91.959 L 32.465 71.024 L 40.809 68.458 L 40.809 91.96 L 49.751 91.96 L 49.751 69.146 L 42.554 66.718 L 42.554 33.481 L 62.326 24.341 L 62.326 56.158 L 51.376 61.106 L 51.376 91.96 L 59.672 91.96 L 59.672 67.222 L 71.674 63.099 L 71.674 91.959 L 81.404 91.959 L 81.404 63.054 L 73.419 61.244 L 73.419 52.997 L 75.739 51.943 L 84.297 54.486 L 84.297 91.96 L 91.397 91.96 L 91.397 90.287 L 86.042 90.287 Z M 47.982 70.337 L 47.982 90.265 L 42.531 90.265 L 42.531 68.481 L 47.981 70.337 L 47.982 70.337 Z M 71.674 61.312 L 57.927 66.03 L 57.927 90.265 L 53.122 90.265 L 53.122 62.159 L 71.674 53.799 L 71.674 61.312 Z M 71.674 51.943 L 64.095 55.356 L 64.095 24.25 L 71.674 27.182 L 71.674 51.943 Z M 79.659 64.381 L 79.659 90.288 L 73.419 90.288 L 73.419 62.961 L 79.659 64.381 Z" transform="matrix(0.35839900374412537, 0, 0, 0.35839900374412537, 8.49993419647216, 12.196189880371094)"/>
</svg>