<svg xmlns="http://www.w3.org/2000/svg" width="70" height="70" fill="none" viewBox="0 0 90 70">
  <g mask="url(#a)">
    <path fill="url(#b)" stroke-width="1" d="M85.231 68.19V31.199l-10.447-3.115-2.176.985V3.962L62.352 0 39.974 10.33v34.29l-10.089 3.093V68.19H23v1.672h8.654V48.927l8.344-2.566v23.502h8.942V47.049l-7.197-2.428V11.384l19.772-9.14v31.817l-10.95 4.948v30.854h8.296V45.125l12.002-4.123v28.86h9.73V40.957l-7.985-1.81V30.9l2.32-1.054 8.558 2.543v37.474h7.1V68.19h-5.355Zm-38.06-19.95v19.928H41.72V46.384l5.45 1.856Zm23.692-9.025-13.747 4.718v24.235h-4.805V40.062l18.552-8.36v7.513Zm0-9.369-7.579 3.413V2.153l7.579 2.932v24.761Zm7.985 12.438v25.907h-6.24V40.864l6.24 1.42Z"/>
  </g>
  <defs>
    <linearGradient id="b" x1="255.421" x2="216.902" y1="69.863" y2="-58.285" gradientUnits="userSpaceOnUse">
      <stop stop-color="#white"/>
      <stop offset="1" stop-color="white"/>
    </linearGradient>
  </defs>
</svg>
